<svg width="16px" height="14px" viewBox="0 0 15 14" version="1.1">
<g id="surface1">
<path d="M 7.492188 6.242188 C 6.835938 4.90625 5.050781 2.414062 3.386719 1.1875 C 1.796875 0.0117188 1.1875 0.210938 0.792969 0.402344 C 0.332031 0.621094 0.25 1.363281 0.25 1.796875 C 0.25 2.230469 0.476562 5.371094 0.628906 5.890625 C 1.121094 7.621094 2.871094 8.207031 4.484375 8.019531 C 4.566406 8.007812 4.648438 7.992188 4.734375 7.984375 C 4.652344 7.996094 4.566406 8.011719 4.484375 8.019531 C 2.121094 8.386719 0.0195312 9.285156 2.777344 12.492188 C 5.804688 15.773438 6.925781 11.789062 7.503906 9.765625 C 8.078125 11.785156 8.742188 15.628906 12.171875 12.492188 C 14.75 9.765625 12.878906 8.386719 10.515625 8.019531 C 10.433594 8.011719 10.347656 7.996094 10.265625 7.984375 C 10.351562 7.996094 10.433594 8.007812 10.515625 8.019531 C 12.128906 8.207031 13.882812 7.621094 14.371094 5.890625 C 14.519531 5.367188 14.75 2.230469 14.75 1.796875 C 14.75 1.363281 14.667969 0.621094 14.207031 0.402344 C 13.808594 0.210938 13.203125 0.0117188 11.613281 1.1875 C 9.9375 2.417969 8.152344 4.90625 7.492188 6.242188 Z M 7.492188 6.242188 "/>
</g>
</svg>

